<?xml version="1.0" encoding="utf-8"?>
<?xml-stylesheet type="text/xsl" href="rss1.xsl"?>
<rss version="2.0" xmlns:atom="http://www.w3.org/2005/Atom" xmlns:content="http://purl.org/rss/1.0/modules/content/" xmlns:dc="http://purl.org/dc/elements/1.1/" xmlns:media="http://search.yahoo.com/mrss/">
<channel>
 <title>Getty</title>
 <link>http://www.gettyimg.com/</link>
 <atom:link href="http://www.gettyimg.com/" rel="self" type="application/rss+xml" />

 
                <item>
                <title><![CDATA[【HD Live Performances】WEB-RiP - Reba McEntire - Live From Madison Square Garden (4k)(Veeps Rip)]]></title>
                <link><![CDATA[https://sharemania.us/threads/reba-mcentire-live-from-madison-square-garden-4k-veeps-rip.227436/]]></link>
                <description><![CDATA[<article>
<blockquote class="messageText SelectQuoteContainer ugc baseHtml">
<img src="https://i.imgur.com/EsR7dPu.jpg" class="bbCodeImage LbImage" alt="[​IMG]" data-url="https://i.imgur.com/EsR7dPu.jpg" style=""><br>
<br>
<div class="ToggleTriggerAnchor bbCodeSpoilerContainer">
<button type="button" class="button bbCodeSpoilerButton ToggleTrigger Tooltip JsOnly" data-target="> .SpoilerTarget"><span>Spoiler: <span class="SpoilerTitle">Mediainfo</span></span></button>
<div class="SpoilerTarget bbCodeSpoilerText">General<br>
Complete name : I:\Reba Live From Madison Square Garden\Reba McEntire - Reba Live - from Madison Square Garden (4K).mp4<br>
Format : MPEG-4<br>
Format profile : Base Media / Version 2<br>
Codec ID : mp42 (mp42/mp41)<br>
File size : 7.72 GiB<br>
Duration : 1 h 42 min<br>
Overall bit rate mode : Variable<br>
Overall bit rate : 10.8 Mb/s<br>
Encoded date : UTC 2023-08-19 20:13:22<br>
Tagged date : UTC 2023-08-19 20:17:36<br>
©TIM : 00:00:00:00<br>
©TSC : 24000<br>
©TSZ : 1001<br>
<br>
Video<br>
ID : 1<br>
Format : AVC<br>
Format/Info : Advanced Video Codec<br>
Format profile : Main@L5.1<br>
Format settings, CABAC : Yes<br>
Format settings, RefFrames : 1 frame<br>
Format settings, GOP : M=1, N=30<br>
Codec ID : avc1<br>
Codec ID/Info : Advanced Video Coding<br>
Duration : 1 h 42 min<br>
Bit rate : 10.5 Mb/s<br>
Width : 3 840 pixels<br>
Height : 2 160 pixels<br>
Display aspect ratio : 16:9<br>
Frame rate mode : Constant<br>
Frame rate : 23.976 (24000/1001) FPS<br>
Color space : YUV<br>
Chroma subsampling : 4:2:0<br>
Bit depth : 8 bits<br>
Scan type : Progressive<br>
Bits/(Pixel*Frame) : 0.053<br>
Stream size : 7.49 GiB (97%)<br>
Language : English<br>
Encoded date : UTC 2023-08-19 20:13:22<br>
Tagged date : UTC 2023-08-19 20:13:22<br>
<br>
Audio<br>
ID : 2<br>
Format : AAC<br>
Format/Info : Advanced Audio Codec<br>
Format profile : LC<br>
Codec ID : 40<br>
Duration : 1 h 42 min<br>
Source duration : 1 h 42 min<br>
Bit rate mode : Variable<br>
Bit rate : 317 kb/s<br>
Maximum bit rate : 419 kb/s<br>
Channel(s) : 2 channels<br>
Channel positions : Front: L R<br>
Sampling rate : 48.0 kHz<br>
Frame rate : 46.875 FPS (1024 SPF)<br>
Compression mode : Lossy<br>
Stream size : 232 MiB (3%)<br>
Source stream size : 232 MiB (3%)<br>
Language : English<br>
Encoded date : UTC 2023-08-19 20:13:22<br>
Tagged date : UTC 2023-08-19 20:13:22</div>
</div><br>
<div class="bbCodeBlock bbCodeVfcHH HiddenContent">
<div class="attribution type">Hidden Content:</div>
<blockquote>You must either reply or click 'Like' to see the hidden information contained here.</blockquote>
</div>
<div class="messageTextEndMarker">&nbsp;</div>
</blockquote>
</article>]]></description>
                <author><![CDATA[garry19877]]></author>
                </item>

                
                <item>
                <title><![CDATA[【Cinema Center】MOVIE - Slaxx.2021.1080p.SHDR.WEB-DL.AAC2.0.H.264-Samuel]]></title>
                <link><![CDATA[https://sharemania.us/threads/slaxx-2021-1080p-shdr-web-dl-aac2-0-h-264-samuel.227438/]]></link>
                <description><![CDATA[<article>
<blockquote class="messageText SelectQuoteContainer ugc baseHtml">
Thanks<img src="styles/default/xenforo/smilies/secret_smile-48.png" class="mceSmilie" alt=":cool:" title="Cool    :cool:">
<div class="messageTextEndMarker">&nbsp;</div>
</blockquote>
</article>]]></description>
                <author><![CDATA[Samuel]]></author>
                </item>

                
                <item>
                <title><![CDATA[【YOUTUBE】WEB-RiP - Within Temptation - Bleed Out 4K]]></title>
                <link><![CDATA[https://sharemania.us/threads/within-temptation-bleed-out-4k.227435/]]></link>
                <description><![CDATA[<article>
<blockquote class="messageText SelectQuoteContainer ugc baseHtml">
<div style="text-align: center"><b><span style="font-size: 26px">Slaxx</span></b><br>
<img src="https://i.imgur.com/ar19gK3.jpg" class="bbCodeImage LbImage" alt="[​IMG]" data-url="https://i.imgur.com/ar19gK3.jpg" style=""><br>
<b><a href="https://i.imgur.com/RmaHdHd.jpg" target="_blank" class="externalLink" rel="nofollow">Poster</a></b> | <b><a href="https://i.imgur.com/5jFuGyE.jpg" target="_blank" class="externalLink" rel="nofollow">Masthead</a></b><br>
<br>
Directed by Elza Kephart<br>
<img src="https://i.imgur.com/5wle0JJ.png" class="bbCodeImage LbImage" alt="[​IMG]" data-url="https://i.imgur.com/5wle0JJ.png" style=""><img src="https://i.imgur.com/5wle0JJ.png" class="bbCodeImage LbImage" alt="[​IMG]" data-url="https://i.imgur.com/5wle0JJ.png" style=""><img src="https://i.imgur.com/5wle0JJ.png" class="bbCodeImage LbImage" alt="[​IMG]" data-url="https://i.imgur.com/5wle0JJ.png" style=""><img src="https://i.imgur.com/5wle0JJ.png" class="bbCodeImage LbImage" alt="[​IMG]" data-url="https://i.imgur.com/5wle0JJ.png" style=""><img src="https://i.imgur.com/sAnFMdT.png" class="bbCodeImage LbImage" alt="[​IMG]" data-url="https://i.imgur.com/sAnFMdT.png" style=""> • 2021 • English • 77min • TV-MA<br>
<br>
<div class="bbCodeBlock bbCodeQuote">
<aside>
<blockquote class="quoteContainer"><div class="quote"><b><span style="font-size: 15px"><span style="font-family: 'Arial'">Description</span></span></b><br>
A possessed pair of jeans is brought to life to punish the unscrupulous practices of a trendy clothing company. Shipped to the company’s flagship store, Slaxx proceeds to wreak carnage on staff locked in overnight to set up the new collection.</div><div class="quoteExpand">Click to expand...</div></blockquote>
</aside>
</div>
<div class="bbCodeBlock bbCodeQuote">
<aside>
<blockquote class="quoteContainer"><div class="quote"><span style="font-family: 'Arial'"><span style="font-size: 15px"><b>Trailers &amp; Clips</b></span></span><br>
<span data-s9e-mediaembed="googledrive" style="display:inline-block;width:100%;max-width:640px"><span style="display:block;overflow:hidden;position:relative;padding-bottom:75%"><iframe allowfullscreen="" loading="lazy" scrolling="no" src="//drive.google.com/file/d/18rU2xX69RUaK6QrzYI9YT4IXjroaEeCn/preview" style="border:0;height:100%;left:0;position:absolute;width:100%"></iframe></span></span></div><div class="quoteExpand quoteCut">Click to expand...</div></blockquote>
</aside>
</div>
<div class="bbCodeBlock bbCodeQuote">
<aside>
<blockquote class="quoteContainer"><div class="quote"><span style="font-family: 'Arial'"><span style="font-size: 15px"><b>Accessibility</b></span></span><br>
<b>Audio languages:</b> English<br>
<b>Subtitles:</b> English (United States)</div><div class="quoteExpand">Click to expand...</div></blockquote>
</aside>
</div>
<div class="bbCodeBlock bbCodeQuote">
<aside>
<blockquote class="quoteContainer"><div class="quote"><span style="font-family: 'Arial'"><span style="font-size: 15px"><b>More Information</b></span></span><br>
<b><i><span style="text-decoration: underline">Runtime</span></i></b><br>
77min<br>
<br>
<b><i><span style="text-decoration: underline">About This Movie</span></i></b><br>
A possessed pair of jeans is brought to life to punish the unscrupulous practices of a trendy clothing company. Shipped to the company’s flagship store, Slaxx proceeds to wreak carnage on staff locked in overnight to set up the new collection.<br>
<br>
<b><i><span style="text-decoration: underline">Cast</span></i></b><br>
Romane Denis, Brett Donahue, Sehar Bhojani</div><div class="quoteExpand quoteCut">Click to expand...</div></blockquote>
</aside>
</div>
<div class="bbCodeBlock bbCodeQuote">
<aside>
<blockquote class="quoteContainer"><div class="quote"><b><span style="font-size: 15px"><span style="font-family: 'Arial'">Source</span></span></b><br>
<img src="https://i.imgur.com/iBinA6h.png" class="bbCodeImage LbImage" alt="[​IMG]" data-url="https://i.imgur.com/iBinA6h.png" style=""></div><div class="quoteExpand">Click to expand...</div></blockquote>
</aside>
</div>
<div class="bbCodeBlock bbCodeQuote">
<aside>
<blockquote class="quoteContainer"><div class="quote"><b><b><span style="font-size: 15px">Release Name</span></b></b><br>
Slaxx.2021.1080p.SHDR.WEB-DL.AAC2.0.H.264-Samuel</div><div class="quoteExpand">Click to expand...</div></blockquote>
</aside>
</div>
<div class="ToggleTriggerAnchor bbCodeSpoilerContainer">
<button type="button" class="button bbCodeSpoilerButton ToggleTrigger Tooltip JsOnly" data-target="> .SpoilerTarget"><span>Spoiler: <span class="SpoilerTitle">Media Information</span></span></button>
<div class="SpoilerTarget bbCodeSpoilerText">General<br>
Complete name : Slaxx.2021.1080p.SHDR.WEB-DL.AAC2.0.H.264-Samuel.mkv<br>
Format : Matroska<br>
Format version : Version 4<br>
File size : 1.68 GiB<br>
Duration : 1 h 16 min<br>
Overall bit rate : 3 149 kb/s<br>
Frame rate : 24.000 FPS<br>
Encoded date : 2023-08-31 16:53:52 UTC<br>
Writing application : mkvmerge v79.0 ('Funeral Pyres') 64-bit<br>
Writing library : libebml v1.4.4 + libmatroska v1.7.1<br>
<br>
Video<br>
ID : 1<br>
Format : AVC<br>
Format/Info : Advanced Video Codec<br>
Format profile : High@L4<br>
Format settings : CABAC / 4 Ref Frames<br>
Format settings, CABAC : Yes<br>
Format settings, Reference frames : 4 frames<br>
Codec ID : V_MPEG4/ISO/AVC<br>
Duration : 1 h 16 min<br>
Bit rate : 3 019 kb/s<br>
Width : 1 920 pixels<br>
Height : 1 080 pixels<br>
Display aspect ratio : 16:9<br>
Frame rate mode : Constant<br>
Frame rate : 24.000 FPS<br>
Color space : YUV<br>
Chroma subsampling : 4:2:0<br>
Bit depth : 8 bits<br>
Scan type : Progressive<br>
Bits/(Pixel*Frame) : 0.061<br>
Stream size : 1.61 GiB (96%)<br>
Writing library : Zencoder Video Encoding System<br>
Default : Yes<br>
Forced : No<br>
Color range : Limited<br>
Color primaries : BT.709<br>
Transfer characteristics : BT.709<br>
Matrix coefficients : BT.709<br>
<br>
Audio<br>
ID : 2<br>
Format : AAC LC<br>
Format/Info : Advanced Audio Codec Low Complexity<br>
Codec ID : A_AAC-2<br>
Duration : 1 h 16 min<br>
Bit rate : 127 kb/s<br>
Channel(s) : 2 channels<br>
Channel layout : L R<br>
Sampling rate : 48.0 kHz<br>
Frame rate : 46.875 FPS (1024 SPF)<br>
Compression mode : Lossy<br>
Stream size : 69.7 MiB (4%)<br>
Language : English<br>
Default : Yes<br>
Forced : No<br>
<br>
Text<br>
ID : 3<br>
Format : UTF-8<br>
Codec ID : S_TEXT/UTF8<br>
Codec ID/Info : UTF-8 Plain Text<br>
Duration : 1 h 15 min<br>
Bit rate : 50 b/s<br>
Frame rate : 0.264 FPS<br>
Count of elements : 1201<br>
Stream size : 28.0 KiB (0%)<br>
Language : English (US)<br>
Default : No<br>
Forced : No</div>
</div><br>
<b>Screenshots</b><br>
<img src="https://i.imgur.com/tOtLMLr.png" class="bbCodeImage LbImage" alt="[​IMG]" data-url="https://i.imgur.com/tOtLMLr.png" style=""><br>
<br>
<b>Download</b><br>
<div class="bbCodeBlock bbCodeVfcHH HiddenContent">
<div class="attribution type">Hidden Content:</div>
<blockquote>You must reply before you can see the hidden data contained here.</blockquote>
</div></div>
<div class="messageTextEndMarker">&nbsp;</div>
</blockquote>
</article>]]></description>
                <author><![CDATA[zaq999]]></author>
                </item>

                
                <item>
                <title><![CDATA[【PRORES HD】2160p - ARIANA GRANDE - POV MV (FINAL LINK MEDIAFIRE)]]></title>
                <link><![CDATA[https://sharemania.us/threads/2160p-ariana-grande-pov-mv-final-link-mediafire.227437/]]></link>
                <description><![CDATA[<article>
<blockquote class="messageText SelectQuoteContainer ugc baseHtml">
<span data-s9e-mediaembed="youtube" style="display:inline-block;width:100%;max-width:640px"><span style="display:block;overflow:hidden;position:relative;padding-bottom:56.25%"><iframe allowfullscreen="" loading="lazy" scrolling="no" style="background:url(https://i.ytimg.com/vi/dBilK-h3lRQ/hqdefault.jpg) 50% 50% / cover;border:0;height:100%;left:0;position:absolute;width:100%" src="https://www.youtube.com/embed/dBilK-h3lRQ?start=1"></iframe></span></span><br>
<br>
H265 4K, dts 5.1, aac 5.1, pcm 24bit 48khz<br>
<div class="bbCodeBlock bbCodeVfcHH HiddenContent">
<div class="attribution type">Hidden Content:</div>
<blockquote>You must either reply or click 'Like' to see the hidden information contained here.</blockquote>
</div>
<div class="messageTextEndMarker">&nbsp;</div>
</blockquote>
</article>]]></description>
                <author><![CDATA[02020203]]></author>
                </item>

                </channel></rss>